<svg width="32" height="32" viewBox="0 0 8.467 8.467" xmlns="http://www.w3.org/2000/svg"><path style="fill:#fff;fill-opacity:1;stroke:none;stroke-width:.287869px;stroke-linecap:butt;stroke-linejoin:miter;stroke-opacity:1" d="m6.854 1.112-.172.892-6.497-.033.687 4.454 5.78.05.774-4.727.93.007.013-.633ZM1.052 2.745l1.367.036.143 1.187H1.328Zm2.04.03 1.785.002-.154 1.175-1.5-.021Zm3.471.044-.22 1.21-.98-.03.186-1.173ZM3.312 4.517l1.378.002-.122 1.062-1.19-.02Zm1.995.027.97.008-.22 1.066-.882-.017Zm-3.869.012 1.19.008.132.974-1.168.016zm-.41 2.014a.577.577 0 0 0-.576.577.577.577 0 0 0 .577.577.577.577 0 0 0 .576-.577.577.577 0 0 0-.576-.577Zm5.457.031a.577.577 0 0 0-.577.577.577.577 0 0 0 .577.577.577.577 0 0 0 .577-.577.577.577 0 0 0-.577-.577Z"/></svg>