<svg width="32" height="32" viewBox="0 0 8.467 8.467" xmlns="http://www.w3.org/2000/svg"><path style="fill:#fff" d="M3.729.076c-.43.006-.813.156-.864.612l-.044.036.022.225a.155.155 0 0 0-.079.09l.012.353-.83.005-.062.253-.168.056-.146.213.017.14-.19.056-.057.118.05.157.006.348.045.056-.011.224.039.073c.007.288-.016.57.022.863l.017.387.455-.005.022 3.101-.045.056c-.052.195-.039.408-.056.612l.068.045.005.106.123.079 1.486.04.038-.037.052.03 1.151-.005.537-.079c.383.056.749.066 1.122.095.178-.028.363-.05.488-.128l.056-.808-.013-1.208.083-.085.09-.275-.031-.423a1.028 1.028 0 0 0-.124-.275c.023-.872.083-1.748.034-2.613-.035-.346-.104-.628-.157-.942a1.709 1.709 0 0 0-.325-.219l-.074-.006C6.463.415 5.707.021 5.65.726c-.022.027-.017.017-.042.127-.022-.426-.311-.69-.69-.493-.22-.13-.732-.29-1.19-.284Zm.02.084h.02c.413 0 .863.133 1.067.262l-.054.294-.036.033.012.206-.065.068.006.399-1.148.035-.02-.041h-.513l.003-.39a.306.306 0 0 0-.06-.08L2.96.756 2.932.697C2.982.3 3.345.164 3.75.16Zm1.405.214c.217-.005.346.152.369.478a2.48 2.48 0 0 0-.547-.443.635.635 0 0 1 .168-.034l.01-.001zm.782.081c.48.186.45.838.474.958h-.512a.523.523 0 0 0-.084-.158v-.211a.083.083 0 0 0-.056-.06l.003-.098.016-.043C5.77.798 5.782.75 5.743.707c-.005-.079.021-.248.193-.252ZM4.904.464c.268.14.466.317.617.514l.038.078v.366l-.626-.008-.004-.398C4.911.979 4.893.974 4.875.964l.018-.212-.05-.038c.013-.088.028-.174.061-.25z"/></svg>