<svg width="32" height="32" viewBox="0 0 8.467 8.467" xmlns="http://www.w3.org/2000/svg"><path style="fill:#fff" d="M7.87 2.45a.69.69 0 0 0-.838.305l-.005-.016-.787-.286-.151.024-.16.431.075.094-.262.71-.225-.09-.33-.013-.265.7.227.276L4.31 6.86l-.351.066-.24.688.221.251 1.226.445.33-.021.265-.7-.227-.279.839-2.276.352-.062.24-.654-.237-.244-.169-.063.26-.71.09-.053.337 1.066-1.027 2.803.284.098 1.03-2.899-.189-.59a.69.69 0 0 0 .048.02.69.69 0 0 0 .887-.41.69.69 0 0 0-.41-.886Zm-.08.217a.46.46 0 0 1 .273.591.46.46 0 0 1-.591.273.46.46 0 0 1-.273-.591.46.46 0 0 1 .59-.273ZM1.343.733c-.22.234-.42.482-.62.731l.056.048c-.034.057-.016.073-.016.103.036.056.069.1.097.118l.044-.01.065.035v.064l.104.093.04-.014.062.063.001.04.096.08.031-.024.095.094-.015.041.285.236a.619.619 0 0 1 .056.273c-.084.158-.218.358-.405.46.276.293.568.555.858.819.086.032.16.071.23.111.014.07.027.139.04.238-.02.087-.087.16-.159.23l-.42.827.063.127-.097-.036-.094.092c.266.27.572.54.874.81l.056-.032c.052.035.051.081.198.096.201-.237.312-.579.461-.874l.286-.787c.08-.088.153-.214.336-.205.19.073.269.121.467.094-.133-.2-.09-.353-.056-.508l.223-.549-.406-.365-.055.016-.89-.826-.04.016-.573-.52.017-.045Zm.58 2.073c.01 0 .019 0 .028.002.186.137.328.275.492.412-.08.265-.299.32-.524.334.233.235.444.038.739-.14l.087.08a.405.405 0 0 1-.012.338l-.262.135-.274-.083-.651-.584-.024-.16.218-.29c.061-.016.121-.044.184-.044z"/></svg>