<svg width="32" height="32" viewBox="0 0 8.467 8.467" xmlns="http://www.w3.org/2000/svg"><path style="fill:#fff;" d="M5.472.132a.884.884 0 0 0-.87.735L4.587.851l-1.07.005-.172.095v.588l.13.08v.968l-.31-.009-.402.131-.008.958.393.23v3.104l-.393.235.016.931.376.205 1.669-.008.387-.172.009-.956-.396-.235V3.897l.396-.23v-.892l-.394-.188h-.23v-.968l.084-.103.874 1.13.007 3.82.385-.009-.045-3.935-.488-.625a.884.884 0 0 0 .066.002.884.884 0 0 0 .884-.883.884.884 0 0 0-.884-.884Zm0 .295a.59.59 0 0 1 .59.59.59.59 0 0 1-.59.588.59.59 0 0 1-.589-.589.59.59 0 0 1 .59-.589Z"/></svg>