<svg width="32" height="32" viewBox="0 0 8.467 8.467" xmlns="http://www.w3.org/2000/svg"><path style="fill:#fff;" d="M5.978.133a1.224 1.224 0 0 0-1.216 1.095l-1.715.015-.358.132-.062.564.538.066-.044.486-.07.632c-.592.031-1.133.134-1.54.479C.918 4.105.553 4.8.553 5.567c0 1.535 1.465 2.779 3.275 2.779 1.81 0 3.276-1.244 3.276-2.78 0-.766-.367-1.461-.96-1.964-.4-.34-.876-.444-1.421-.477l-.138-.399-.07-.44.542-.075 2.215 1.922.238 3.34.546-.004-.286-3.615-1.457-1.318a1.224 1.224 0 0 0 .89-1.178A1.224 1.224 0 0 0 5.977.133Zm0 .455a.77.77 0 0 1 .771.77.77.77 0 0 1-.77.77.77.77 0 0 1-.13-.011l-.614-.556a.77.77 0 0 1-.028-.203.77.77 0 0 1 .771-.77Z"/></svg>