<svg width="32" height="32" viewBox="0 0 8.467 8.467" xmlns="http://www.w3.org/2000/svg"><path style="fill:#fff;" d="M3.22 4.522c.337-.142.717-.18.777.543-.145.243-.166.422-.482.318a.085.085 0 0 0-.05.078c.324.433.743-.106.887-.25.813 1.112 1.745 1.917 2.706 2.646.023.14.023.272.079.425a.51.51 0 0 0 .142.055c.433-.203.692-.516.85-.89a.25.25 0 0 0-.102-.15l-.362-.055A14.365 14.365 0 0 0 4.962 4.58c.132-.137.273-.268.38-.42.016-.197-.018-.289-.147-.382-.072.01-.145.064-.152.122.05.077.084.128.045.215a2.184 2.184 0 0 1-.29.126l-.076.063c-.684-.692-1.37-1.359-2.179-2.009C1.991 1.876 1.213 1.066.511.143c-.32 1.84 1.432 3.063 2.708 4.379Z"/></svg>