<svg width="32" height="32" viewBox="0 0 8.467 8.467" xmlns="http://www.w3.org/2000/svg"><path style="fill:#fff;" d="M1.127.066C1.008.147.89.301.772.42L.67.316C.609.306.548.29.488.333l.005.043.177.165-.046.063.09.102L.696.73l.082.077.04.003.574.534-.026.037.109.102.034-.023.684.645-.006.052.077.048.023.023-.002.04c.246.27.464.527.77.826l.104.208.205.192.128.046.04-.02.463.469-.157.117-.517.238-.545.091-.387-.028-.074-.029c-.04.25-.082.496-.116.759h.043l.036-.037c.53.095 1.144.047 2.012-.438l-.187.233.034.032.113-.145.134.093.034-.045v.1l.35.355h.073l.06-.035.025.114-.244.64-.137.153.137.187.307.091.119-.122.253-.557.196-.147.117.1.162.13.408.625.825 1.739a.41.41 0 0 0 .218.139c.244-.282.48-.578.72-.87.009-.057.028-.092.022-.185-.422-.4-.891-.79-1.338-1.184l-.193-.074-.427-.642-.045-.057.022-.043c-.007-.057 0-.113.004-.17l-.023-.02L5.99 4.8l-.384-.352v-.023c-.04-.062-.093-.097-.147-.134l-.017.006-.39-.355.01-.021-.035-.042-.023.003-.545-.497.01-.014-.025-.032-.024.004-.231-.217.043-.033a.726.726 0 0 1-.123-.123l.028-.011.146.143a.187.187 0 0 0 .053-.075.063.063 0 0 0-.045.01l-.137-.135c.014-.014-.004-.11-.096-.06l-.193-.204-.06-.015-.077-.09-.074.034-.068-.077c-.265-.292-.629-.572-.926-.827l-.04.028-.58-.53a.756.756 0 0 1-.23.079c-.083-.01-.15-.059-.224-.09L1.062.693 1.107.63l.06-.275.096-.1c.002-.018.004-.036.003-.051zm-.16.32.08.067L1.03.56.904.445ZM.853.743l.07.068L.94.797l.268.254.013-.011.24.236-.034.032L.832.753Zm1.13.653.06.056-.001.013.255.238.017-.007.009.015-.008.012.145.123-.006.012.014.014-.01.007-.095-.085-.015.023-.012-.007-.021.018-.4-.368.024-.027-.007-.012zm-.408.01.196.177.026.004.403.37-.005.025.058.051-.021.024-.69-.638.008-.01.015.01zm3.06 3.26.307.311c0 .08-.049.138-.195.156l-.01.015.013.012c.122-.004.207-.047.258-.12l.032.047a1.84 1.84 0 0 0-.153.14c-.037.027-.077.026-.117.024-.108-.109-.222-.212-.324-.327l.001-.076z"/></svg>